<svg id="SVG" xmlns="http://www.w3.org/2000/svg" viewBox="0 0 682.43 212.28">
  <defs>
    <style>
      .cls-1 {
        fill: none;
      }
    </style>
  </defs>
  <title>CA3 color plat</title>
  <polygon class="cls-1" points="71.25 172.76 94.96 172.76 98.61 177.06 98.61 202.07 89.59 210.52 71.25 210.52 71.25 172.76"/>
  <polygon class="cls-1" points="47.16 166.3 68.28 172.76 68.28 210.52 10.56 210.52 6.85 206.78 47.16 166.3"/>
  <polygon class="cls-1" points="38.48 145.96 45.2 163.96 4.2 203.89 0.98 200.94 0.98 145.96 38.48 145.96"/>
  <polygon class="cls-1" points="45.2 119.15 45.2 128.93 38.48 143.41 0.98 143.41 0.98 119.15 45.2 119.15"/>
  <rect class="cls-1" x="0.98" y="92.54" width="44.22" height="23.87"/>
  <polygon class="cls-1" points="38.48 65.73 45.2 83.28 45.2 89.98 0.98 89.98 0.98 65.73 38.48 65.73"/>
  <polygon class="cls-1" points="0 0 46.17 46.96 38.48 63.2 0.98 62.22 0 0"/>
  <polygon class="cls-1" points="3.91 0 70.04 0 70.04 40.3 48.91 45 3.91 0"/>
  <rect class="cls-1" x="73.47" width="22.6" height="39.91"/>
  <rect class="cls-1" x="98.8" width="24.26" height="39.91"/>
  <rect class="cls-1" x="125.64" width="23.64" height="39.91"/>
  <rect class="cls-1" x="152.22" width="23.67" height="39.91"/>
  <rect class="cls-1" x="178.73" width="23.97" height="39.91"/>
  <rect class="cls-1" x="205.28" width="23.83" height="39.91"/>
  <rect class="cls-1" x="231.82" width="23.51" height="39.91"/>
  <rect class="cls-1" x="258.37" width="23.77" height="39.91"/>
  <rect class="cls-1" x="285.07" width="23.28" height="39.91"/>
  <rect class="cls-1" x="311.46" y="0.78" width="23.5" height="39.13"/>
  <rect class="cls-1" x="338" y="0.78" width="23.76" height="39.13"/>
  <rect class="cls-1" x="364.55" y="0.78" width="23.43" height="39.13"/>
  <rect class="cls-1" x="391.09" y="0.78" width="23.89" height="40.3"/>
  <rect class="cls-1" x="417.64" y="0.78" width="23.17" height="40.3"/>
  <rect class="cls-1" x="444.18" y="0.78" width="23.43" height="40.3"/>
  <rect class="cls-1" x="470.73" y="0.78" width="23.69" height="40.3"/>
  <rect class="cls-1" x="497.27" y="1.76" width="23.55" height="39.33"/>
  <rect class="cls-1" x="523.82" y="1.76" width="23.23" height="39.33"/>
  <polygon class="cls-1" points="550.57 1.76 583.24 1.76 571.7 42.82 550.57 41.09 550.57 1.76"/>
  <polygon class="cls-1" points="586.19 1.76 625.89 1.76 625.89 21.3 582.07 51.46 573.93 44.8 586.19 1.76"/>
  <polygon class="cls-1" points="625.89 25.04 625.89 70.63 587.35 70.63 583.24 53.41 625.89 25.04"/>
  <polygon class="cls-1" points="625.89 73.56 625.89 97.04 580.3 97.04 580.3 85.3 586.19 73.56 625.89 73.56"/>
  <rect class="cls-1" x="580.3" y="99.98" width="45.59" height="30.33"/>
  <rect class="cls-1" x="580.3" y="132.85" width="45.59" height="24.07"/>
  <rect class="cls-1" x="580.3" y="159.85" width="45.59" height="23.09"/>
  <polygon class="cls-1" points="580.3 186.65 625.89 186.65 625.89 212.28 588.91 212.28 580.3 203.89 580.3 186.65"/>
  <rect class="cls-1" x="629.02" y="1.76" width="53.41" height="209.54"/>
  <rect class="cls-1" x="72.2" y="106.93" width="26.61" height="39.03"/>
  <rect class="cls-1" x="101.73" y="106.93" width="23.91" height="39.03"/>
  <rect class="cls-1" x="128.48" y="106.93" width="23.74" height="39.03"/>
  <rect class="cls-1" x="154.73" y="106.93" width="24" height="39.03"/>
  <rect class="cls-1" x="181.73" y="106.93" width="23.55" height="39.03"/>
  <rect class="cls-1" x="207.98" y="106.93" width="23.84" height="39.81"/>
  <rect class="cls-1" x="234.48" y="108.07" width="23.89" height="37.89"/>
  <rect class="cls-1" x="261.23" y="108.07" width="23.84" height="37.89"/>
  <rect class="cls-1" x="287.73" y="108.07" width="23.73" height="37.89"/>
  <rect class="cls-1" x="313.98" y="107.57" width="24.02" height="38.56"/>
  <rect class="cls-1" x="340.73" y="108.07" width="23.82" height="38.07"/>
  <rect class="cls-1" x="367.73" y="108.07" width="23.36" height="38.07"/>
  <rect class="cls-1" x="393.98" y="108.07" width="23.66" height="38.87"/>
  <rect class="cls-1" x="420.48" y="108.07" width="23.7" height="38.87"/>
  <rect class="cls-1" x="447.1" y="108.07" width="23.62" height="38.87"/>
  <rect class="cls-1" x="472.98" y="108.07" width="24.29" height="38.87"/>
  <rect class="cls-1" x="499.98" y="108.98" width="23.84" height="37.96"/>
  <rect class="cls-1" x="526.5" y="108.98" width="27" height="38.97"/>
  <rect class="cls-1" x="526.5" y="67.3" width="27" height="39.28"/>
  <rect class="cls-1" x="499.98" y="67.3" width="23.84" height="39.28"/>
  <rect class="cls-1" x="472.98" y="67.3" width="24.29" height="39.28"/>
  <rect class="cls-1" x="447.1" y="67.3" width="23.62" height="39.28"/>
  <rect class="cls-1" x="420.48" y="67.3" width="23.7" height="39.28"/>
  <rect class="cls-1" x="393.98" y="67.3" width="23.66" height="39.28"/>
  <rect class="cls-1" x="366.73" y="67.3" width="24.36" height="39.28"/>
  <rect class="cls-1" x="340.48" y="67.3" width="24.07" height="39.28"/>
  <rect class="cls-1" x="313.98" y="67.3" width="24.02" height="39.28"/>
  <rect class="cls-1" x="287.73" y="66.52" width="23.73" height="39.13"/>
  <rect class="cls-1" x="261.23" y="66.52" width="23.84" height="39.13"/>
  <rect class="cls-1" x="234.48" y="66.52" width="23.89" height="39.13"/>
  <rect class="cls-1" x="207.98" y="66.52" width="23.84" height="39.13"/>
  <rect class="cls-1" x="181.73" y="66.52" width="23.55" height="39.13"/>
  <rect class="cls-1" x="154.73" y="66.52" width="24" height="39.13"/>
  <rect class="cls-1" x="128.48" y="65.73" width="23.74" height="38.75"/>
  <rect class="cls-1" x="101.73" y="65.73" width="23.91" height="38.75"/>
  <rect class="cls-1" x="71.39" y="64.72" width="27.41" height="39.76"/>
  <rect class="cls-1" x="123.99" y="171.84" width="28.23" height="38.68"/>
  <rect class="cls-1" x="154.73" y="172.76" width="24" height="37.76"/>
  <rect class="cls-1" x="181.73" y="172.76" width="23.55" height="37.76"/>
  <rect class="cls-1" x="207.98" y="172.76" width="23.84" height="37.76"/>
  <rect class="cls-1" x="234.48" y="172.76" width="23.89" height="37.76"/>
  <rect class="cls-1" x="261.23" y="172.76" width="23.84" height="37.76"/>
  <rect class="cls-1" x="287.73" y="172.76" width="23.73" height="37.76"/>
  <rect class="cls-1" x="313.98" y="173.43" width="24.02" height="37.09"/>
  <rect class="cls-1" x="340.73" y="173.51" width="23.82" height="38.48"/>
  <rect class="cls-1" x="367.73" y="173.51" width="23.36" height="37.8"/>
  <rect class="cls-1" x="393.98" y="173.43" width="23.66" height="37.87"/>
  <rect class="cls-1" x="420.48" y="173.51" width="23.7" height="37.8"/>
  <rect class="cls-1" x="446.98" y="173.51" width="23.75" height="38.48"/>
  <rect class="cls-1" x="472.98" y="173.51" width="24.29" height="38.48"/>
  <rect class="cls-1" x="499.98" y="173.51" width="23.84" height="38.78"/>
  <rect class="cls-1" x="526.5" y="173.51" width="27" height="38.48"/>
</svg>
