<svg id="SVG" xmlns="http://www.w3.org/2000/svg" viewBox="0 0 358.43 146.09">
  <defs>
    <style>
      .cls-1 {
        fill: none;
      }
    </style>
  </defs>
  <title>CA2 color plat</title>
  <rect class="cls-1" x="315.65" width="42.78" height="27.13"/>
  <rect class="cls-1" x="315.65" y="31.3" width="42.78" height="25.04"/>
  <rect class="cls-1" x="315.65" y="59.48" width="42.78" height="27.65"/>
  <rect class="cls-1" x="334.96" y="98.61" width="23.48" height="47.48"/>
  <rect class="cls-1" x="310.43" y="98.61" width="22.43" height="47.48"/>
  <rect class="cls-1" x="283.83" y="98.61" width="22.96" height="47.48"/>
  <rect class="cls-1" x="258.26" y="98.61" width="22.96" height="47.48"/>
  <rect class="cls-1" x="230.61" y="98.61" width="24" height="47.48"/>
  <rect class="cls-1" x="205.04" y="98.61" width="22.96" height="47.48"/>
  <rect class="cls-1" x="177.91" y="98.61" width="24" height="47.48"/>
  <rect class="cls-1" x="152.35" y="98.61" width="23.48" height="47.48"/>
  <rect class="cls-1" x="126.26" y="98.61" width="23.48" height="47.48"/>
  <rect class="cls-1" x="100.17" y="98.61" width="23.48" height="47.48"/>
  <polygon class="cls-1" points="84.52 101.74 96.52 101.74 96.52 146.09 53.22 146.09 84.52 101.74"/>
  <polygon class="cls-1" points="77.22 87.13 81.91 98.61 46.96 146.09 0 146.09 0 109.56 77.22 87.13"/>
  <polygon class="cls-1" points="81.91 70.11 81.91 82.44 0 106.11 0 80.48 81.91 70.11"/>
  <polygon class="cls-1" points="74.87 56.35 79.11 67.56 0 76.37 18.46 45.26 74.87 56.35"/>
  <polygon class="cls-1" points="97.7 0.85 87.72 47.41 76.76 53.09 19.04 41.35 7.7 0.85 97.7 0.85"/>
  <polygon class="cls-1" points="123.65 0.85 123.65 29.22 100.17 56.35 90.85 47.41 101.61 0.85 123.65 0.85"/>
  <polygon class="cls-1" points="123.65 35.09 123.65 85.96 93.59 85.96 93.59 69.12 100.17 59.48 123.65 35.09"/>
  <rect class="cls-1" x="127.04" y="59.48" width="42.65" height="27.65"/>
  <rect class="cls-1" x="127.04" y="31.3" width="42.65" height="26.48"/>
  <rect class="cls-1" x="127.04" y="0.85" width="37.04" height="27.75"/>
  <rect class="cls-1" x="186.73" y="0.85" width="36.77" height="27.75"/>
  <rect class="cls-1" x="181.24" y="31.3" width="42.26" height="26.48"/>
  <rect class="cls-1" x="181.24" y="60.82" width="42.26" height="26.32"/>
  <rect class="cls-1" x="227.02" y="60.82" width="41.67" height="26.32"/>
  <rect class="cls-1" x="227.02" y="31.3" width="41.67" height="26.48"/>
  <rect class="cls-1" x="227.02" y="0.85" width="36.59" height="27.75"/>
  <rect class="cls-1" x="287.09" y="0.85" width="26.02" height="42.07"/>
  <rect class="cls-1" x="281.22" y="46.04" width="31.89" height="41.09"/>
</svg>
