<?xml version="1.0" encoding="utf-8"?>
<svg version="1.1" id="SVG" xmlns="http://www.w3.org/2000/svg" xmlns:xlink="http://www.w3.org/1999/xlink" x="0px" y="0px"
	 viewBox="0 0 476 612" xml:space="preserve">

<rect x="64" y="40" width="125.5" height="95" title="B-1"/>
<rect x="194" y="40" width="44" height="95" title="B-2"/>
<rect x="244" y="40" width="43.5" height="95" title="B-3"/>
<rect x="292.5" y="40" width="44" height="95" title="B-4"/>
<polygon points="342,40 399.4,40 370.7,127.1 361.5,135 342,135 " title="B-4"/>
<polygon points="406.5,40 454.6,40 454.6,79 399.2,133 378,123 " title="B-6"/>
<polygon points="454.6,87.5 453.3,204.2 394,163 399.4,139.3 " title="B-7"/>
<polygon points="364.1,168.8 390.8,168.8 453.3,209.5 453.3,227.5 364.1,226 " title="B-8"/>
<rect x="265.8" y="156.5" width="93.8" height="46.3" title="B-9"/>
<rect x="265.8" y="206.3" width="45.3" height="89" title="B-10"/>
<rect x="314.5" y="206.3" width="47" height="89" title="B-11"/>
<polygon points="365.5,231.8 453.3,231.8 453.3,255.4 396.5,291.3 368.5,287 " title="B-12"/>
<polygon points="399.4,297.2 453.3,263.5 452,401.3 395.3,322 " title="B-13"/>
<polygon points="364.1,326.5 391.3,326.5 448.3,405.8 364.1,405.8 " title="B-14"/>
<rect x="313.7" y="315.8" width="45.8" height="91.4" title="B-15"/>
<rect x="263.5" y="315.8" width="47.5" height="91.4" title="B-16"/>
<rect x="263.5" y="410.3" width="47.5" height="92.3" title="B-17"/>
<rect x="313.7" y="410.3" width="45.8" height="92.3" title="B-18"/>
<polygon points="363,410.3 449.8,410.3 385,491.5 363,498 " title="B-19"/>
<polygon points="389.5,494 452.3,415 451.3,533.5 400,516 " title="B-20"/>
<polygon points="398.5,520.4 449.8,539 449.8,594.8 392.5,594.8 379.7,534.5 " title="B-21"/>
<polygon points="322,522.8 359.5,522.8 373.5,533.5 386.8,596 322,594.8 " title="B-22"/>
<polygon points="264.2,522.8 317.3,522.8 317.3,596 281.3,596 251,575.8 264.2,539.8 " title="B-23"/>
<rect x="62.5" y="156.5" width="90.5" height="46.3"/>
<rect x="156.3" y="156.5" width="89" height="46.3"/>
<rect x="62.5" y="206.3" width="90.5" height="47.3"/>
<rect x="156.3" y="206.3" width="89" height="47.3"/>
<rect x="62.5" y="256.8" width="90.5" height="47.3"/>
<rect x="156.3" y="256.8" width="88" height="56.5"/>
<rect x="156.3" y="317.6" width="88" height="72.4"/>
<rect x="156.3" y="394.3" width="88" height="54.8"/>
<rect x="62" y="451.6" width="90.3" height="54.6"/>
<rect x="156.3" y="452.5" width="88" height="53.8"/>
<rect x="62" y="509.8" width="90.3" height="55.3"/>
<polygon points="62.5,307.8 153,307.8 153,350 62.5,394.3 "/>
<polygon points="62.5,399.3 153,353.8 153,449 62.5,449 "/>
<polygon points="155.3,509.8 244.3,509.8 244.3,535.5 231.8,568.8 216.3,565 155.3,565 "/>
</svg>
